<svg version="1" xmlns="http://www.w3.org/2000/svg" width="1074.667" height="1074.667" viewBox="0 0 806.000000 806.000000"><path d="M123 1.7c-1.9.2-6.6.9-10.5 1.5-3.8.7-7.4 1.3-8 1.4-.5 0-1.9.4-3 .9-1.1.4-4.9 1.9-8.5 3.3-3.6 1.4-8.3 3.7-10.5 5.1-2.2 1.4-4.2 2.5-4.5 2.6-.3 0-1.2.6-2 1.2-.8.7-4 3.3-7 5.7-15.2 12.1-26.4 31.7-30 52.5-.8 4.6-1.1 82.9-1.1 281 0 270.6 0 274.8 2 284.1 3.8 18.3 11.9 32.9 25.2 45.6 5.4 5.1 18.9 14.8 20.8 14.9.3.1 3.1 1.2 6.1 2.7 16.4 7.6 19.3 7.8 91.1 7.9H246l.2 47 .3 47.1 6-4.6c7.3-5.6 11.3-8.8 12.9-10.1.7-.6 1.9-1.5 2.8-2 1.8-1.1 28-21.3 31.4-24.2 1.1-1 3.3-2.7 4.8-3.8 1.6-1.1 3.4-2.6 4.1-3.3.8-.6 1.8-1.2 2.3-1.2.6 0 1.2-.3 1.4-.8.2-.4 1.9-1.9 3.8-3.4s8.5-6.5 14.5-11.2c6.1-4.7 11.9-9.3 13-10.1 1.1-.9 8.6-6.6 16.6-12.8 8-6.1 16-12.3 17.9-13.7 1.8-1.4 4.1-3.2 5.1-4 1.1-.8 2.9-2.3 4.2-3.2 19.4-14.9 36.5-28.2 37.7-29.1.8-.7 3.1-2.3 5-3.7 1.9-1.4 4.2-3 5-3.7 13.1-10.4 22-17.3 22.5-17.3.3 0 1.7-1.2 3-2.6 1.4-1.5 2.5-2.3 2.5-1.9 0 .5.9 0 2-1.1 1-1 3-2.7 4.2-3.6 1.3-1 4.6-3.6 7.4-5.8 2.9-2.2 5.5-4 5.9-4 .8 0 .4 5.1-.6 6.5-.3.5-3.9 11.6-7.9 24.5-9.2 30-13.8 44.5-15.6 49.3-2.6 6.9-5.8 6.4 42.4 6.5 118.1.3 188.3.2 191.8-.3 6.3-.9 17.7-3.6 20.9-5 1.7-.7 5.1-2.1 7.7-3.1 2.7-1.1 4.8-2.3 4.8-2.7 0-.5.5-.5 1-.2.6.3 1 .1 1-.4 0-.6.6-1.1 1.3-1.1.7 0 2.3-.9 3.5-2 1.2-1.1 2.4-2 2.7-2 1.4 0 15.4-13.3 19.9-19 6.3-7.9 14-24.9 16.2-35.5 1.2-5.9 1.5-556.6.3-564-2-12.4-7.6-26-15.1-36.5-7.7-10.9-20.9-22.8-28.5-25.9-1.8-.8-3.3-1.7-3.3-2.2 0-.5-.6-.9-1.2-.9-.7 0-2.5-.6-3.9-1.4-3-1.5-13.8-5-21.4-6.8-3.8-.9-72.1-1.2-288.5-1.3-155.9-.1-285.1 0-287 .2zm213.8 159.8c2.8 1 5.2 2.2 5.2 2.7 0 .4.6.8 1.3.8.7 0 2.3.9 3.5 2 1.2 1.1 2.4 2 2.7 2 .3 0 8.3 5.2 17.7 11.5 9.4 6.3 17.4 11.5 17.9 11.5s.9.4.9 1c0 .5.5 1 1 1 .6 0 1.6.5 2.3 1.1.7.6 19.4 13.1 41.7 27.9 22.3 14.9 41.2 27.4 42 28 2.2 1.6 49.9 33.3 51.7 34.5 10.9 6.9 63.4 42.3 65.1 43.9 4.1 3.6 9 11.9 10.7 18 3.4 11.8-.6 26.5-9.7 35.4-2.4 2.3-9.7 7.8-16.3 12.2-6.6 4.3-12.5 8.4-13.2 9-.7.5-1.4 1-1.7 1-.3 0-4.9 3-10.3 6.7-21.3 14.5-25.5 17.3-26.4 17.3-.5 0-.9.4-.9 1 0 .5-.7 1-1.5 1s-1.5.4-1.5 1c0 .5-.6 1-1.3 1-.8 0-2.2.9-3.2 2s-2.4 2-3.2 2c-.7 0-1.3.4-1.3 1 0 .5-.7 1-1.5 1s-1.5.4-1.5 1c0 .5-.5 1-1.1 1-.6 0-3.2 1.5-5.8 3.4-7.2 5.2-22.5 15.3-23.1 15.2-.3 0-1.9 1.1-3.5 2.7-1.6 1.5-3.3 2.7-3.8 2.7-.7 0-36.3 23.7-40 26.6-.9.8-2.2 1.4-2.7 1.4-.6 0-1 .5-1 1.1 0 .5-.4.7-1 .4-.5-.3-1-.2-1 .4 0 .6-1.6 1.8-3.5 2.7-1.9.9-3.5 2-3.5 2.5s-.6.9-1.2.9c-.7 0-3.7 1.8-6.6 4-2.9 2.2-5.4 4-5.7 4-.2 0-3.3 2-6.9 4.5-3.7 2.5-7 4.5-7.5 4.5s-1.1.4-1.3.8c-.1.5-5.7 4.3-12.3 8.6-6.6 4.3-12.1 8.2-12.3 8.7-.2.5-.8.9-1.3.9s-4.4 2.4-8.7 5.4c-14.7 10.2-21 12.4-33.5 12-7.2-.2-18.5-3.7-19.4-6.1-.3-.7-.9-1.1-1.3-.8-1.3.8-9.6-8.9-12.4-14.3-1.4-2.7-3-7.9-3.5-11.3-.7-4.1-1-63.8-1-165.9-.1-173.8-.2-168 5.6-177.9 2.9-5.1 13.3-15.6 13.3-13.5 0 .4.8.1 1.8-.7 4.1-3.5 16.4-5.9 24.2-4.8 2.5.4 6.9 1.4 9.8 2.4z"/></svg>