<svg version="1" xmlns="http://www.w3.org/2000/svg" width="682.667" height="682.667" viewBox="0 0 512.000000 512.000000"><path d="M243 51.1c-73.3 3.8-140.6 49.7-173 118.1-12.9 27.3-19 55.2-19 86.8 0 24.2 2.9 42.9 10.1 64.4 24.8 74.2 88.8 127.7 166.3 139.1 14.4 2.1 42.8 2.1 57.2 0 44.3-6.5 84.7-26.7 115.9-58 33.2-33.2 53.7-75.1 59.5-121.5 1.3-10.9 1.3-37.1 0-48-9.6-77.3-61.9-143.2-134.3-169.1-27.6-9.9-51.8-13.3-82.7-11.8zm92.4 127.3c10.4 1.1 16.1 2.1 19.1 3.6 6.2 3 12.2 9.5 14.5 15.8 2 5.3 2.1 7.3 1.8 59.1l-.3 53.6-2.3 4.3c-3.3 6.1-9.5 11.8-15.5 14-7 2.7-26.9 4.2-66.2 5.1-49.5 1.2-113.4-.8-125.7-4-8.4-2.2-17.2-10.6-19.7-19-.7-2.4-1.1-21.4-1.1-56.6v-53l3.1-6.1c3.1-6.4 8.1-11.1 14.2-13.7 9.6-4 38.8-5.4 106.7-5 42.1.2 60.3.7 71.4 1.9z"/><path d="M220 255.5c0 24.5.2 44.5.5 44.5.4 0 76.6-43.8 77.3-44.5.3-.3-76.2-44.5-77.1-44.5-.4 0-.7 20-.7 44.5z"/></svg>